<?xml version="1.0" encoding="UTF-8" standalone="no"?>
<!DOCTYPE svg PUBLIC "-//W3C//DTD SVG 1.1//EN"
 "http://www.w3.org/Graphics/SVG/1.1/DTD/svg11.dtd">
<!-- Generated by graphviz version 16.0.0 (20260814.1018)
 -->
<!-- Title: logo Pages: 1 -->
<svg width="476pt" height="120pt"
 viewBox="0.00 0.00 476.00 120.00" xmlns="http://www.w3.org/2000/svg" xmlns:xlink="http://www.w3.org/1999/xlink">
<g id="graph0" class="graph" transform="scale(1 1) rotate(0) translate(18 101.5)">
<title>logo</title>
<text xml:space="preserve" text-anchor="middle" x="219.88" y="-9.1" font-family="Microsoft YaHei" font-size="12.00" fill="#64748b">轻量 · 自然语言 → 命令</text>
<!-- nl -->
<g id="node1" class="node">
<title>nl</title>
<path fill="#334155" stroke="none" d="M12,-24.5C12,-24.5 80.75,-24.5 80.75,-24.5 86.75,-24.5 92.75,-30.5 92.75,-36.5 92.75,-36.5 92.75,-71.5 92.75,-71.5 92.75,-77.5 86.75,-83.5 80.75,-83.5 80.75,-83.5 12,-83.5 12,-83.5 6,-83.5 0,-77.5 0,-71.5 0,-71.5 0,-36.5 0,-36.5 0,-30.5 6,-24.5 12,-24.5"/>
<text xml:space="preserve" text-anchor="start" x="16" y="-45.75" font-family="Microsoft YaHei" font-size="20.00" fill="#e2e8f0">跑起来</text>
</g>
<!-- asf -->
<g id="node2" class="node">
<title>asf</title>
<path fill="#22c55e" stroke="none" d="M147.75,-27.88C147.75,-27.88 227,-27.88 227,-27.88 233,-27.88 239,-33.88 239,-39.88 239,-39.88 239,-68.12 239,-68.12 239,-74.12 233,-80.12 227,-80.12 227,-80.12 147.75,-80.12 147.75,-80.12 141.75,-80.12 135.75,-74.12 135.75,-68.12 135.75,-68.12 135.75,-39.88 135.75,-39.88 135.75,-33.88 141.75,-27.88 147.75,-27.88"/>
<text xml:space="preserve" text-anchor="start" x="151.75" y="-46.12" font-family="Microsoft YaHei" font-size="20.00" fill="#f59e0b">⚡</text>
<text xml:space="preserve" text-anchor="start" x="178" y="-46.12" font-family="Consolas" font-size="20.00" fill="#0f172a"> asf</text>
</g>
<!-- nl&#45;&gt;asf -->
<g id="edge1" class="edge">
<title>nl&#45;&gt;asf</title>
<path fill="none" stroke="#22c55e" stroke-width="2.2" d="M92.5,-54C102.21,-54 112.63,-54 122.88,-54"/>
<polygon fill="#22c55e" stroke="#22c55e" stroke-width="2.2" points="122.85,-57.5 132.85,-54 122.85,-50.5 122.85,-57.5"/>
</g>
<!-- cmd -->
<g id="node3" class="node">
<title>cmd</title>
<path fill="#0f172a" stroke="none" d="M294,-26.88C294,-26.88 427.75,-26.88 427.75,-26.88 433.75,-26.88 439.75,-32.88 439.75,-38.88 439.75,-38.88 439.75,-69.12 439.75,-69.12 439.75,-75.12 433.75,-81.12 427.75,-81.12 427.75,-81.12 294,-81.12 294,-81.12 288,-81.12 282,-75.12 282,-69.12 282,-69.12 282,-38.88 282,-38.88 282,-32.88 288,-26.88 294,-26.88"/>
<path fill="none" stroke="#334155" d="M294,-26.88C294,-26.88 427.75,-26.88 427.75,-26.88 433.75,-26.88 439.75,-32.88 439.75,-38.88 439.75,-38.88 439.75,-69.12 439.75,-69.12 439.75,-75.12 433.75,-81.12 427.75,-81.12 427.75,-81.12 294,-81.12 294,-81.12 288,-81.12 282,-75.12 282,-69.12 282,-69.12 282,-38.88 282,-38.88 282,-32.88 288,-26.88 294,-26.88"/>
<text xml:space="preserve" text-anchor="start" x="299" y="-49.12" font-family="Consolas" font-size="20.00" fill="#22c55e">npm run dev</text>
</g>
<!-- asf&#45;&gt;cmd -->
<g id="edge2" class="edge">
<title>asf&#45;&gt;cmd</title>
<path fill="none" stroke="#22c55e" stroke-width="2.2" d="M238.9,-54C248.42,-54 258.64,-54 268.96,-54"/>
<polygon fill="#22c55e" stroke="#22c55e" stroke-width="2.2" points="268.71,-57.5 278.71,-54 268.71,-50.5 268.71,-57.5"/>
</g>
</g>
</svg>
